<svg viewBox="0 0 330 200" xmlns="http://www.w3.org/2000/svg"><g><g><g><g><g><line x1="51.5625" y1="177" x2="46.5625" y2="177" style="visibility: inherit;" fill="rgb(0, 0, 0)" stroke="rgb(204, 204, 204)" stroke-width="1px"></line><line x1="51.5625" y1="157.33333333333331" x2="46.5625" y2="157.33333333333331" style="visibility: inherit;" fill="rgb(0, 0, 0)" stroke="rgb(204, 204, 204)" stroke-width="1px"></line><line x1="51.5625" y1="137.66666666666666" x2="46.5625" y2="137.66666666666666" style="visibility: inherit;" fill="rgb(0, 0, 0)" stroke="rgb(204, 204, 204)" stroke-width="1px"></line><line x1="51.5625" y1="118" x2="46.5625" y2="118" style="visibility: inherit;" fill="rgb(0, 0, 0)" stroke="rgb(204, 204, 204)" stroke-width="1px"></line><line x1="51.5625" y1="98.33333333333334" x2="46.5625" y2="98.33333333333334" style="visibility: inherit;" fill="rgb(0, 0, 0)" stroke="rgb(204, 204, 204)" stroke-width="1px"></line><line x1="51.5625" y1="78.66666666666666" x2="46.5625" y2="78.66666666666666" style="visibility: inherit;" fill="rgb(0, 0, 0)" stroke="rgb(204, 204, 204)" stroke-width="1px"></line><line x1="51.5625" y1="59.00000000000001" x2="46.5625" y2="59.00000000000001" style="visibility: inherit;" fill="rgb(0, 0, 0)" stroke="rgb(204, 204, 204)" stroke-width="1px"></line><line x1="51.5625" y1="39.33333333333335" x2="46.5625" y2="39.33333333333335" style="visibility: inherit;" fill="rgb(0, 0, 0)" stroke="rgb(204, 204, 204)" stroke-width="1px"></line><line x1="51.5625" y1="19.666666666666675" x2="46.5625" y2="19.666666666666675" style="visibility: inherit;" fill="rgb(0, 0, 0)" stroke="rgb(204, 204, 204)" stroke-width="1px"></line><line x1="51.5625" y1="0" x2="46.5625" y2="0" style="visibility: inherit;" fill="rgb(0, 0, 0)" stroke="rgb(204, 204, 204)" stroke-width="1px"></line></g><g transform="translate(41.5625, 0)"><text x="0" y="177" dx="0em" dy="0.3em" style="text-anchor: end; visibility: hidden; font-family: Roboto, sans-serif; font-size: 12px; font-weight: 200;" fill="rgb(255, 255, 255)" stroke="none" stroke-width="1px">-0.1</text><text x="0" y="157.33333333333331" dx="0em" dy="0.3em" style="text-anchor: end; visibility: inherit; font-family: Roboto, sans-serif; font-size: 12px; font-weight: 200;" fill="rgb(255, 255, 255)" stroke="none" stroke-width="1px">0</text><text x="0" y="137.66666666666666" dx="0em" dy="0.3em" style="text-anchor: end; visibility: hidden; font-family: Roboto, sans-serif; font-size: 12px; font-weight: 200;" fill="rgb(255, 255, 255)" stroke="none" stroke-width="1px">0.1</text><text x="0" y="118" dx="0em" dy="0.3em" style="text-anchor: end; visibility: inherit; font-family: Roboto, sans-serif; font-size: 12px; font-weight: 200;" fill="rgb(255, 255, 255)" stroke="none" stroke-width="1px">0.2</text><text x="0" y="98.33333333333334" dx="0em" dy="0.3em" style="text-anchor: end; visibility: hidden; font-family: Roboto, sans-serif; font-size: 12px; font-weight: 200;" fill="rgb(255, 255, 255)" stroke="none" stroke-width="1px">0.3</text><text x="0" y="78.66666666666666" dx="0em" dy="0.3em" style="text-anchor: end; visibility: inherit; font-family: Roboto, sans-serif; font-size: 12px; font-weight: 200;" fill="rgb(255, 255, 255)" stroke="none" stroke-width="1px">0.4</text><text x="0" y="59.00000000000001" dx="0em" dy="0.3em" style="text-anchor: end; visibility: hidden; font-family: Roboto, sans-serif; font-size: 12px; font-weight: 200;" fill="rgb(255, 255, 255)" stroke="none" stroke-width="1px">0.5</text><text x="0" y="39.33333333333335" dx="0em" dy="0.3em" style="text-anchor: end; visibility: inherit; font-family: Roboto, sans-serif; font-size: 12px; font-weight: 200;" fill="rgb(255, 255, 255)" stroke="none" stroke-width="1px">0.6</text><text x="0" y="19.666666666666675" dx="0em" dy="0.3em" style="text-anchor: end; visibility: hidden; font-family: Roboto, sans-serif; font-size: 12px; font-weight: 200;" fill="rgb(255, 255, 255)" stroke="none" stroke-width="1px">0.7</text><text x="0" y="0" dx="0em" dy="0.3em" style="text-anchor: end; visibility: hidden; font-family: Roboto, sans-serif; font-size: 12px; font-weight: 200;" fill="rgb(255, 255, 255)" stroke="none" stroke-width="1px">0.8</text></g><line x1="51.5625" y1="0" x2="51.5625" y2="177" fill="rgb(0, 0, 0)" stroke="rgb(204, 204, 204)" stroke-width="1px"></line></g></g><g transform="translate(51, 0)" clip-path="url(#clip_0)"><clipPath id="clip_0"><rect width="278" height="176"></rect></clipPath><g><g><g><line x1="0" y1="0" x2="0" y2="177" fill="rgb(0, 0, 0)" stroke="rgb(189, 189, 189)" stroke-width="1px" opacity="0.25"></line><line x1="19.888392857142858" y1="0" x2="19.888392857142858" y2="177" fill="rgb(0, 0, 0)" stroke="rgb(189, 189, 189)" stroke-width="1px" opacity="0.25"></line><line x1="39.776785714285715" y1="0" x2="39.776785714285715" y2="177" fill="rgb(0, 0, 0)" stroke="rgb(189, 189, 189)" stroke-width="1px" opacity="0.25"></line><line x1="59.66517857142857" y1="0" x2="59.66517857142857" y2="177" fill="rgb(0, 0, 0)" stroke="rgb(189, 189, 189)" stroke-width="1px" opacity="0.25"></line><line x1="79.55357142857143" y1="0" x2="79.55357142857143" y2="177" fill="rgb(0, 0, 0)" stroke="rgb(189, 189, 189)" stroke-width="1px" opacity="0.25"></line><line x1="99.44196428571429" y1="0" x2="99.44196428571429" y2="177" fill="rgb(0, 0, 0)" stroke="rgb(189, 189, 189)" stroke-width="1px" opacity="0.25"></line><line x1="119.33035714285714" y1="0" x2="119.33035714285714" y2="177" fill="rgb(0, 0, 0)" stroke="rgb(189, 189, 189)" stroke-width="1px" opacity="0.25"></line><line x1="139.21875" y1="0" x2="139.21875" y2="177" fill="rgb(0, 0, 0)" stroke="rgb(189, 189, 189)" stroke-width="1px" opacity="0.25"></line><line x1="159.10714285714286" y1="0" x2="159.10714285714286" y2="177" fill="rgb(0, 0, 0)" stroke="rgb(189, 189, 189)" stroke-width="1px" opacity="0.25"></line><line x1="178.99553571428572" y1="0" x2="178.99553571428572" y2="177" fill="rgb(0, 0, 0)" stroke="rgb(189, 189, 189)" stroke-width="1px" opacity="0.25"></line><line x1="198.88392857142858" y1="0" x2="198.88392857142858" y2="177" fill="rgb(0, 0, 0)" stroke="rgb(189, 189, 189)" stroke-width="1px" opacity="0.25"></line><line x1="218.77232142857142" y1="0" x2="218.77232142857142" y2="177" fill="rgb(0, 0, 0)" stroke="rgb(189, 189, 189)" stroke-width="1px" opacity="0.25"></line><line x1="238.66071428571428" y1="0" x2="238.66071428571428" y2="177" fill="rgb(0, 0, 0)" stroke="rgb(189, 189, 189)" stroke-width="1px" opacity="0.25"></line><line x1="258.54910714285717" y1="0" x2="258.54910714285717" y2="177" fill="rgb(0, 0, 0)" stroke="rgb(189, 189, 189)" stroke-width="1px" opacity="0.25"></line><line x1="278.4375" y1="0" x2="278.4375" y2="177" fill="rgb(0, 0, 0)" stroke="rgb(189, 189, 189)" stroke-width="1px" opacity="0.25"></line></g><g><line x1="0" y1="177" x2="278.4375" y2="177" fill="rgb(0, 0, 0)" stroke="rgb(189, 189, 189)" stroke-width="1px" opacity="0.25"></line><line x1="0" y1="157.33333333333331" x2="278.4375" y2="157.33333333333331" fill="rgb(0, 0, 0)" stroke="rgb(189, 189, 189)" stroke-width="1px" opacity="0.25"></line><line x1="0" y1="137.66666666666666" x2="278.4375" y2="137.66666666666666" fill="rgb(0, 0, 0)" stroke="rgb(189, 189, 189)" stroke-width="1px" opacity="0.25"></line><line x1="0" y1="118" x2="278.4375" y2="118" fill="rgb(0, 0, 0)" stroke="rgb(189, 189, 189)" stroke-width="1px" opacity="0.25"></line><line x1="0" y1="98.33333333333334" x2="278.4375" y2="98.33333333333334" fill="rgb(0, 0, 0)" stroke="rgb(189, 189, 189)" stroke-width="1px" opacity="0.25"></line><line x1="0" y1="78.66666666666666" x2="278.4375" y2="78.66666666666666" fill="rgb(0, 0, 0)" stroke="rgb(189, 189, 189)" stroke-width="1px" opacity="0.25"></line><line x1="0" y1="59.00000000000001" x2="278.4375" y2="59.00000000000001" fill="rgb(0, 0, 0)" stroke="rgb(189, 189, 189)" stroke-width="1px" opacity="0.25"></line><line x1="0" y1="39.33333333333335" x2="278.4375" y2="39.33333333333335" fill="rgb(0, 0, 0)" stroke="rgb(189, 189, 189)" stroke-width="1px" opacity="0.25"></line><line x1="0" y1="19.666666666666675" x2="278.4375" y2="19.666666666666675" fill="rgb(0, 0, 0)" stroke="rgb(189, 189, 189)" stroke-width="1px" opacity="0.25"></line><line x1="0" y1="0" x2="278.4375" y2="0" fill="rgb(0, 0, 0)" stroke="rgb(189, 189, 189)" stroke-width="1px" opacity="0.25"></line></g></g></g><g><g><line x1="0" y1="157.33333333333331" x2="278.4375" y2="157.33333333333331" fill="rgb(0, 0, 0)" stroke="rgb(153, 153, 153)" stroke-width="1.5px"></line></g></g><g><g><line x1="19.888392857142858" y1="0" x2="19.888392857142858" y2="177" fill="rgb(0, 0, 0)" stroke="rgb(153, 153, 153)" stroke-width="1.5px"></line></g></g><g><g><g><g><g><path stroke="rgb(0, 119, 187)" stroke-width="2px" d="M20.8828125,12.619781732559211L21.877232142857142,15.561442936460192L22.871651785714285,25.271435249419444L23.866071428571427,21.124363370239735L24.860491071428573,20.725474405338346L25.854910714285715,18.589861790568573L26.849330357142858,22.618666033643454L27.84375,19.684569541316094L28.838169642857146,19.39160851949111L29.832589285714285,23.751704943103345L30.827008928571427,17.220254862839386L31.82142857142857,20.083190893961227L32.815848214285715,25.9732215486696L33.810267857142854,25.386599737907684L34.8046875,31.511750594460533L35.79910714285714,31.2759929601683L36.793526785714285,26.118584305881907L37.78794642857142,27.938482889818346L38.78236607142857,20.650853027096787L39.776785714285715,25.507226165073757L40.77120535714286,25.056530882023903L41.765625,19.48982668872321L42.760044642857146,21.423651841316733L43.754464285714285,22.4517330328358L44.74888392857143,21.50507966157742L45.74330357142857,23.85674028691967L46.73772321428571,25.536863090176734L47.732142857142854,25.10106813465886L48.7265625,18.381728165473074L49.720982142857146,20.962576319990585L50.715401785714285,24.80439269453904L51.70982142857143,27.14561016065797L52.70424107142857,26.13187208919571L53.698660714285715,25.607940367641284L54.693080357142854,21.36367927950973L55.6875,19.090954361534898L56.681919642857146,23.00624106257869L57.67633928571429,23.650904597826706L58.67075892857143,18.294631704867168L59.66517857142857,19.025849477541552L60.659598214285715,24.50014790502694L61.654017857142854,20.63233242210884L62.6484375,20.440853288379493L63.64285714285714,25.84925874800234L64.63727678571429,27.872215593453415L65.63169642857143,25.191587355325066L66.62611607142857,20.00944433983013L67.62053571428571,28.62753499194966L68.61495535714286,29.0060863771787L69.609375,41.15502119940906L70.60379464285714,36.83925225463837L71.59821428571428,50.32961414337503L72.59263392857143,46.8436768576264L73.58705357142857,47.09977574297376L74.58147321428571,50.80718892702845L75.57589285714285,35.944141113093174L76.5703125,54.952635957800084L77.56473214285714,65.42479675253539L78.55915178571429,73.56975482249509L79.55357142857143,92.07919956650976L80.54799107142858,79.2678584103182L81.54241071428572,107.89163368708313L82.53683035714286,74.13731841504392L83.53125,93.93877679661811L84.52566964285714,89.85234338376462L85.52008928571429,105.04733537236976L86.51450892857143,95.55600109060681L87.50892857142857,106.04956592138655L88.50334821428571,93.97923342992492L89.49776785714286,98.25422347750045L90.4921875,105.90310554007156L91.48660714285714,77.48345404644489L92.48102678571428,104.16659876175531L93.47544642857142,115.4858291177023L94.46986607142857,122.16626387604487L95.46428571428571,129.78021165391849L96.45870535714286,123.4522841969791L97.453125,56.45615706044412L98.44754464285715,90.63514740386394L99.44196428571429,111.688124281876L100.43638392857143,126.65784630341096L101.43080357142857,126.55796902872778L102.42522321428572,128.8885088771442L103.41964285714286,125.37805636385238L104.4140625,137.19975636423126L105.40848214285714,145.09642376868473L106.40290178571428,140.63913982332872L107.39732142857143,142.60610105924485L108.39174107142857,120.45954119165346L109.38616071428571,127.98529261549079L110.38058035714285,139.10973054041324L111.375,140.39312494518276L112.36941964285714,120.78841611974586L113.36383928571429,126.51844301561405L114.35825892857143,136.95813064867193L115.35267857142858,129.23928106483183L116.34709821428572,113.49039082123655L117.34151785714286,128.14819571113875L118.3359375,131.232214675762L119.33035714285714,129.66510405128264L120.32477678571429,127.19729293973285L121.31919642857143,130.4110484456482L122.31361607142857,47.30455263865763L123.30803571428571,86.99002218989197L124.30245535714286,70.47539549319544L125.296875,104.5783292025244L126.29129464285714,117.9651530108799L127.28571428571428,132.15004159243603L128.28013392857142,138.9346016500296L129.27455357142858,116.5485273194652L130.26897321428572,124.64374335561241L131.26339285714286,90.67838109306919L132.2578125,115.39844784302967L133.25223214285714,130.58259092517767L134.24665178571428,126.84392481296105L135.24107142857142,134.20797121176426L136.23549107142856,128.49988910148127L137.22991071428572,138.90886609657358L138.22433035714286,145.72319080970934L139.21875,149.95595476702204L140.21316964285714,147.45879447067986L141.20758928571428,148.5503420478416L142.20200892857142,131.4528676378516L143.19642857142856,137.85379574345276L144.19084821428572,105.75678830333585L145.18526785714286,122.0969983398201L146.1796875,134.12760615950518L147.17410714285714,140.74523749911205L148.16852678571428,145.39466348417648L149.16294642857142,149.65240831985403L150.15736607142856,152.1687746491392L151.1517857142857,151.2399421063876L152.14620535714283,142.85652773744758L153.140625,140.5738209277405L154.13504464285714,145.36958273639362L155.12946428571428,149.4705549000109L156.12388392857142,152.50883211534898L157.11830357142858,149.5597461512189L158.11272321428572,150.16001240912084L159.10714285714286,152.7192363590181L160.1015625,125.32197684348705L161.09598214285717,137.93156052535423L162.0904017857143,130.26049908542026L163.08482142857144,140.89076036178602L164.07924107142858,144.68108619231106L165.07366071428572,149.4005022256262L166.06808035714286,151.27590809714917L167.0625,127.54618921152029L168.05691964285714,139.317685082247L169.05133928571428,145.04605698815394L170.04575892857144,149.71600777135635L171.04017857142858,152.634351487503L172.03459821428572,142.061431921847L173.02901785714286,146.97827985276422L174.0234375,149.37708328499184L175.01785714285714,140.46125868757835L176.01227678571428,144.88313903391523L177.00669642857142,147.1653390138159L178.00111607142856,130.29421495251714L178.99553571428572,140.62223548342004L179.98995535714286,146.48159036178916L180.984375,150.2202030627302L181.97879464285714,152.85694920427085L182.97321428571428,152.8591391533006L183.96763392857142,154.45886499570145L184.96205357142856,155.54291110421144L185.9564732142857,156.12015314678058L186.95089285714283,156.20552069835685L187.9453125,156.058171716687L188.93973214285714,153.98959526659465L189.93415178571428,154.92460004259993L190.92857142857142,155.7435356095064L191.92299107142858,155.72804116520058L192.91741071428572,156.14569087134214L193.91183035714286,156.24993871893832L194.90625,155.8645561632793L195.90066964285717,155.74328811847852L196.8950892857143,153.06726801127405L197.88950892857144,154.3020491735451L198.88392857142858,155.07523500639078L199.87834821428572,155.90643515952652L200.87276785714286,156.1556655441566L201.8671875,154.81059265384138L202.86160714285714,150.45029150396027L203.85602678571428,152.60788387824755L204.85044642857144,153.50484039919374L205.84486607142858,154.08070646372514L206.83928571428572,154.58029598805552L207.83370535714286,154.356359279036L208.828125,155.2688114218068L209.82254464285714,150.48147329522087L210.81696428571428,153.20304303675792L211.81138392857142,154.8400076889123L212.80580357142856,155.73639249600473L213.80022321428572,155.7072595316023L214.79464285714286,154.9426008109957L215.7890625,155.88694553409294L216.78348214285714,151.17507600884204L217.77790178571428,153.2600694317156L218.77232142857142,154.87484289781298L219.76674107142856,155.6661699665276L220.7611607142857,156.21614618742717L221.75558035714283,155.36406715498916L222.75,153.5140424417648L223.74441964285714,154.63465516736764L224.73883928571428,155.56127952648842L225.73325892857142,156.17910382067225L226.72767857142858,156.49996918656217L227.72209821428572,154.78493617654516L228.71651785714286,155.18838467432462L229.7109375,155.99124718661773L230.70535714285717,134.60174325082104L231.6997767857143,143.39989464801093L232.69419642857144,148.92568343228152L233.68861607142858,152.18440108216805L234.68303571428572,154.17323909726815L235.67745535714286,155.19803463596847L236.671875,155.96289349143453L237.66629464285714,156.5055023259861L238.66071428571428,156.77852295876883L239.65513392857144,148.71613835717048L240.64955357142858,151.72445181799316L241.64397321428572,151.3731699225846L242.63839285714286,153.70701259340728L243.6328125,149.3401238836798L244.62723214285714,150.37296014237123L245.62165178571428,152.97947492313514L246.61607142857142,154.64471462944923L247.61049107142856,155.71623775919645L248.60491071428572,154.42936360573987L249.59933035714286,154.72850455161662L250.59375,155.412450076044L251.58816964285714,154.2733535175922L252.58258928571428,154.43401245035145L253.57700892857142,155.59160555121397L254.57142857142856,155.5712048466529L255.5658482142857,156.14309882737726L256.56026785714283,156.5580561123964L257.5546875,153.2105218050486L258.54910714285717,153.17249947950876L259.5435267857143,154.71402434373903L260.53794642857144,155.74729116962078" style="fill: none;" fill="none"></path></g></g></g></g><g opacity="0.2"><g><g><g><path stroke="rgb(0, 119, 187)" stroke-width="2px" d="M20.8828125,12.619781732559211L21.877232142857142,17.32643965880077L22.871651785714285,34.59302786986034L23.866071428571427,16.24740684032441L24.860491071428573,20.20468497276306L25.854910714285715,15.635540723800672L26.849330357142858,28.379920562108374L27.84375,15.406628688176484L28.838169642857146,18.959547917048138L29.832589285714285,30.225939989089966L30.827008928571427,7.482319513956714L31.82142857142857,24.36201496918997L32.815848214285715,34.78903555870056L33.810267857142854,24.507816274960845L34.8046875,40.69227699438731L35.79910714285714,30.922522783279433L36.793526785714285,18.384653766949977L37.78794642857142,30.667868693669647L38.78236607142857,9.720518430074073L39.776785714285715,32.79134198029836L40.77120535714286,24.380512674649573L41.765625,11.139953573544824L42.760044642857146,24.32435139020285L43.754464285714285,23.99384264151256L44.74888392857143,20.085106333096828L45.74330357142857,27.38422119617463L46.73772321428571,28.057042996088665L47.732142857142854,24.447376370429993L48.7265625,8.302724401156123L49.720982142857146,24.833847125371314L50.715401785714285,30.567115982373565L51.70982142857143,30.65743589401245L52.70424107142857,24.611265103022273L53.698660714285715,24.822042822837837L54.693080357142854,14.997287829717012L55.6875,15.68186704317729L56.681919642857146,28.879171053568538L57.67633928571429,24.617899894714363L58.67075892857143,10.26022239526114L59.66517857142857,20.12267613410951L60.659598214285715,32.711595535278335L61.654017857142854,14.830609202384949L62.6484375,20.153634587923694L63.64285714285714,33.9618669350942L64.63727678571429,30.906650861104346L65.63169642857143,21.170644998550415L66.62611607142857,12.236229817072553L67.62053571428571,41.554670969645194L68.61495535714286,29.573913455009475L69.609375,59.37842343250911L70.60379464285714,30.365598837534588L71.59821428571428,70.56515697638196L72.59263392857143,41.61477092901866L73.58705357142857,47.48392407099407L74.58147321428571,56.36830870310467L75.57589285714285,13.649569392204292L76.5703125,83.46537822484972L77.56473214285714,81.13303794463475L78.55915178571429,85.78719192743301L79.55357142857143,119.84336668252945L80.54799107142858,60.05084667603176L81.54241071428572,150.8272966022293L82.53683035714286,23.505845506985988L83.53125,123.64096436897914L84.52566964285714,83.72269326448442L85.52008928571429,127.83982335527737L86.51450892857143,81.3189996679624L87.50892857142857,121.78991316755612L88.50334821428571,75.8737346927325L89.49776785714286,104.66670854886375L90.4921875,117.3764286339283L91.48660714285714,34.853976806004844L92.48102678571428,144.1913158347209L93.47544642857142,132.46467465162277L94.46986607142857,132.18691601355872L95.46428571428571,141.20113332072896L96.45870535714286,113.96039301156998L97.453125,-44.038033644358315L98.44754464285715,141.90363291899365L99.44196428571429,143.26758959889412L100.43638392857143,149.1124293357134L101.43080357142857,126.40815311670303L102.42522321428572,132.38431864976883L103.41964285714286,120.11237759391467L104.4140625,154.93230636479953L105.40848214285714,156.94142487536496L106.40290178571428,133.95321390529475L107.39732142857143,145.556542913119L108.39174107142857,87.23970139026643L109.38616071428571,139.27391975124678L110.38058035714285,155.79638742779693L111.375,142.31821655233702L112.36941964285714,91.38135288159052L113.36383928571429,135.1134833594163L114.35825892857143,152.61766209825873L115.35267857142858,117.66100668907167L116.34709821428572,89.8670554558436L117.34151785714286,150.13490304599205L118.3359375,135.85824312269688L119.33035714285714,127.31443811456361L120.32477678571429,123.49557627240817L121.31919642857143,135.23168170452118L122.31361607142857,-77.35519107182823L123.30803571428571,146.5182265167435L124.30245535714286,45.703455448150635L125.296875,155.73272976651788L126.29129464285714,138.04538872341314L127.28571428571428,153.42737446477017L128.28013392857142,149.11144173642L129.27455357142858,82.96941582361858L130.26897321428572,136.78656740983328L131.26339285714286,39.73033769925436L132.2578125,152.47854796797037L133.25223214285714,153.3588055483997L134.24665178571428,121.23592564463615L135.24107142857142,145.2540408099691L136.23549107142856,119.93776593605678L137.22991071428572,154.52233158921203L138.22433035714286,155.94467787941298L139.21875,156.3051007029911L140.21316964285714,143.71305402616662L141.20758928571428,150.18766341358423L142.20200892857142,105.80665602286658L143.19642857142856,147.45518790185452L144.19084821428572,57.611277143160514L145.18526785714286,146.6073133945465L146.1796875,152.17351788903275L147.17410714285714,150.67168450852236L148.16852678571428,152.36880246177316L149.16294642857142,156.03902557337037L150.15736607142856,155.943324143067L151.1517857142857,149.84669329226017L152.14620535714283,130.28140618403754L153.140625,137.14976071317992L154.13504464285714,152.56322544937333L155.12946428571428,155.62201314543685L156.12388392857142,157.06624793835607L157.11830357142858,145.13611720502377L158.11272321428572,151.06041179597378L159.10714285714286,156.55807228386402L160.1015625,84.22608757019044L161.09598214285717,156.84593604815504L162.0904017857143,118.7539069255193L163.08482142857144,156.83615227633467L164.07924107142858,150.36657493809858L165.07366071428572,156.479626275599L166.06808035714286,154.08901690443355L167.0625,91.95161088307701L168.05691964285714,156.97492888833705L169.05133928571428,153.63861484701434L170.04575892857144,156.72093394616L171.04017857142858,157.01186706172302L172.03459821428572,126.20205257336299L173.02901785714286,154.35355174914002L174.0234375,152.97528843333325L175.01785714285714,127.08752179145813L176.01227678571428,151.51595955342054L177.00669642857142,150.5886389836669L178.00111607142856,104.98752886056901L178.99553571428572,156.11426627977443L179.98995535714286,155.2706226793428L180.984375,155.82812211414176L181.97879464285714,156.8120684165818L182.97321428571428,152.86242407684526L183.96763392857142,156.85845375930268L184.96205357142856,157.16898026697646L185.9564732142857,156.98601621063426L186.95089285714283,156.33357202572125L187.9453125,155.83714824418226L188.93973214285714,150.8867305914561L189.93415178571428,156.32710720660788L190.92857142857142,156.97193895986615L191.92299107142858,155.70479949874183L192.91741071428572,156.7721654305545L193.91183035714286,156.40631049033254L194.90625,155.28648232979077L195.90066964285717,155.5613860512773L196.8950892857143,149.05323785046738L197.88950892857144,156.1542209169517L198.88392857142858,156.23501375565928L199.87834821428572,157.15323538923013L200.87276785714286,156.52951112110168L201.8671875,152.7929833183686L202.86160714285714,143.90983977913857L203.85602678571428,155.84427243967852L204.85044642857144,154.85027518061298L205.84486607142858,154.9445055605223L206.83928571428572,155.32968027455112L207.83370535714286,154.0204542155067L208.828125,156.637489635963L209.82254464285714,143.3004661053419L210.81696428571428,157.28539764906355L211.81138392857142,157.29545466714384L212.80580357142856,157.08096970664337L213.80022321428572,155.6635600849986L214.79464285714286,153.79561273008585L215.7890625,157.3034626187388L216.78348214285714,144.10727172096568L217.77790178571428,156.38755956602594L218.77232142857142,157.2970030969591L219.76674107142856,156.85316056959954L220.7611607142857,157.0411105187765L221.75558035714283,154.08594860633215L222.75,150.73900537192822L223.74441964285714,156.31557425577193L224.73883928571428,156.9512160651696L225.73325892857142,157.10584026194798L226.72767857142858,156.98126723539704L227.72209821428572,152.21238666151962L228.71651785714286,155.79355742099384L229.7109375,157.19554095505737L230.70535714285717,102.517487347126L231.6997767857143,156.59712174379578L232.69419642857144,157.21436660868736L233.68861607142858,157.0724775569979L234.68303571428572,157.1564961199183L235.67745535714286,156.73522794401893L236.671875,157.11018177463365L237.66629464285714,157.31941557781346L238.66071428571428,157.18805390794296L239.65513392857144,136.62256145477295L240.64955357142858,156.2369220092272L241.64397321428572,150.84624707947177L242.63839285714286,157.20777659964128L243.6328125,142.7897908190886L244.62723214285714,151.92221453040838L245.62165178571428,156.88924709428102L246.61607142857142,157.14257418892035L247.61049107142856,157.32352245381722L248.60491071428572,152.49905237555504L249.59933035714286,155.17721597043177L250.59375,156.43836836268503L251.58816964285714,152.56470867991447L252.58258928571428,154.67500084949037L253.57700892857142,157.32799520250774L254.57142857142856,155.54060378981134L255.5658482142857,157.00093979846378L256.56026785714283,157.1804920399251L257.5546875,148.18922034402686L258.54910714285717,153.11546599119902L259.5435267857143,157.0263116400844L260.53794642857144,157.2971914084434" style="fill: none;" fill="none"></path></g></g></g></g></g></g><g transform="translate(51, 177)" clip-path="url(#clip_1)"><clipPath id="clip_1"><rect width="278" height="22"></rect></clipPath><g><g><line x1="0" y1="0" x2="0" y2="5" style="visibility: inherit;" fill="rgb(0, 0, 0)" stroke="rgb(204, 204, 204)" stroke-width="1px"></line><line x1="19.888392857142858" y1="0" x2="19.888392857142858" y2="5" style="visibility: inherit;" fill="rgb(0, 0, 0)" stroke="rgb(204, 204, 204)" stroke-width="1px"></line><line x1="39.776785714285715" y1="0" x2="39.776785714285715" y2="5" style="visibility: inherit;" fill="rgb(0, 0, 0)" stroke="rgb(204, 204, 204)" stroke-width="1px"></line><line x1="59.66517857142857" y1="0" x2="59.66517857142857" y2="5" style="visibility: inherit;" fill="rgb(0, 0, 0)" stroke="rgb(204, 204, 204)" stroke-width="1px"></line><line x1="79.55357142857143" y1="0" x2="79.55357142857143" y2="5" style="visibility: inherit;" fill="rgb(0, 0, 0)" stroke="rgb(204, 204, 204)" stroke-width="1px"></line><line x1="99.44196428571429" y1="0" x2="99.44196428571429" y2="5" style="visibility: inherit;" fill="rgb(0, 0, 0)" stroke="rgb(204, 204, 204)" stroke-width="1px"></line><line x1="119.33035714285714" y1="0" x2="119.33035714285714" y2="5" style="visibility: inherit;" fill="rgb(0, 0, 0)" stroke="rgb(204, 204, 204)" stroke-width="1px"></line><line x1="139.21875" y1="0" x2="139.21875" y2="5" style="visibility: inherit;" fill="rgb(0, 0, 0)" stroke="rgb(204, 204, 204)" stroke-width="1px"></line><line x1="159.10714285714286" y1="0" x2="159.10714285714286" y2="5" style="visibility: inherit;" fill="rgb(0, 0, 0)" stroke="rgb(204, 204, 204)" stroke-width="1px"></line><line x1="178.99553571428572" y1="0" x2="178.99553571428572" y2="5" style="visibility: inherit;" fill="rgb(0, 0, 0)" stroke="rgb(204, 204, 204)" stroke-width="1px"></line><line x1="198.88392857142858" y1="0" x2="198.88392857142858" y2="5" style="visibility: inherit;" fill="rgb(0, 0, 0)" stroke="rgb(204, 204, 204)" stroke-width="1px"></line><line x1="218.77232142857142" y1="0" x2="218.77232142857142" y2="5" style="visibility: inherit;" fill="rgb(0, 0, 0)" stroke="rgb(204, 204, 204)" stroke-width="1px"></line><line x1="238.66071428571428" y1="0" x2="238.66071428571428" y2="5" style="visibility: inherit;" fill="rgb(0, 0, 0)" stroke="rgb(204, 204, 204)" stroke-width="1px"></line><line x1="258.54910714285717" y1="0" x2="258.54910714285717" y2="5" style="visibility: inherit;" fill="rgb(0, 0, 0)" stroke="rgb(204, 204, 204)" stroke-width="1px"></line><line x1="278.4375" y1="0" x2="278.4375" y2="5" style="visibility: inherit;" fill="rgb(0, 0, 0)" stroke="rgb(204, 204, 204)" stroke-width="1px"></line></g><g transform="translate(0, 8)"><text x="0" y="0" dx="0em" dy="0.95em" style="text-anchor: middle; visibility: hidden; font-family: Roboto, sans-serif; font-size: 12px; font-weight: 200;" fill="rgb(255, 255, 255)" stroke="none" stroke-width="1px">-1k</text><text x="19.888392857142858" y="0" dx="0em" dy="0.95em" style="text-anchor: middle; visibility: inherit; font-family: Roboto, sans-serif; font-size: 12px; font-weight: 200;" fill="rgb(255, 255, 255)" stroke="none" stroke-width="1px">0</text><text x="39.776785714285715" y="0" dx="0em" dy="0.95em" style="text-anchor: middle; visibility: hidden; font-family: Roboto, sans-serif; font-size: 12px; font-weight: 200;" fill="rgb(255, 255, 255)" stroke="none" stroke-width="1px">1k</text><text x="59.66517857142857" y="0" dx="0em" dy="0.95em" style="text-anchor: middle; visibility: inherit; font-family: Roboto, sans-serif; font-size: 12px; font-weight: 200;" fill="rgb(255, 255, 255)" stroke="none" stroke-width="1px">2k</text><text x="79.55357142857143" y="0" dx="0em" dy="0.95em" style="text-anchor: middle; visibility: hidden; font-family: Roboto, sans-serif; font-size: 12px; font-weight: 200;" fill="rgb(255, 255, 255)" stroke="none" stroke-width="1px">3k</text><text x="99.44196428571429" y="0" dx="0em" dy="0.95em" style="text-anchor: middle; visibility: inherit; font-family: Roboto, sans-serif; font-size: 12px; font-weight: 200;" fill="rgb(255, 255, 255)" stroke="none" stroke-width="1px">4k</text><text x="119.33035714285714" y="0" dx="0em" dy="0.95em" style="text-anchor: middle; visibility: hidden; font-family: Roboto, sans-serif; font-size: 12px; font-weight: 200;" fill="rgb(255, 255, 255)" stroke="none" stroke-width="1px">5k</text><text x="139.21875" y="0" dx="0em" dy="0.95em" style="text-anchor: middle; visibility: inherit; font-family: Roboto, sans-serif; font-size: 12px; font-weight: 200;" fill="rgb(255, 255, 255)" stroke="none" stroke-width="1px">6k</text><text x="159.10714285714286" y="0" dx="0em" dy="0.95em" style="text-anchor: middle; visibility: hidden; font-family: Roboto, sans-serif; font-size: 12px; font-weight: 200;" fill="rgb(255, 255, 255)" stroke="none" stroke-width="1px">7k</text><text x="178.99553571428572" y="0" dx="0em" dy="0.95em" style="text-anchor: middle; visibility: inherit; font-family: Roboto, sans-serif; font-size: 12px; font-weight: 200;" fill="rgb(255, 255, 255)" stroke="none" stroke-width="1px">8k</text><text x="198.88392857142858" y="0" dx="0em" dy="0.95em" style="text-anchor: middle; visibility: hidden; font-family: Roboto, sans-serif; font-size: 12px; font-weight: 200;" fill="rgb(255, 255, 255)" stroke="none" stroke-width="1px">9k</text><text x="218.77232142857142" y="0" dx="0em" dy="0.95em" style="text-anchor: middle; visibility: inherit; font-family: Roboto, sans-serif; font-size: 12px; font-weight: 200;" fill="rgb(255, 255, 255)" stroke="none" stroke-width="1px">10k</text><text x="238.66071428571428" y="0" dx="0em" dy="0.95em" style="text-anchor: middle; visibility: hidden; font-family: Roboto, sans-serif; font-size: 12px; font-weight: 200;" fill="rgb(255, 255, 255)" stroke="none" stroke-width="1px">11k</text><text x="258.54910714285717" y="0" dx="0em" dy="0.95em" style="text-anchor: middle; visibility: inherit; font-family: Roboto, sans-serif; font-size: 12px; font-weight: 200;" fill="rgb(255, 255, 255)" stroke="none" stroke-width="1px">12k</text><text x="278.4375" y="0" dx="0em" dy="0.95em" style="text-anchor: middle; visibility: hidden; font-family: Roboto, sans-serif; font-size: 12px; font-weight: 200;" fill="rgb(255, 255, 255)" stroke="none" stroke-width="1px">13k</text></g><line x1="0" y1="0" x2="278.4375" y2="0" fill="rgb(0, 0, 0)" stroke="rgb(204, 204, 204)" stroke-width="1px"></line></g></g></g></g></svg>